# xmcd CD database file
#
# Track frame offsets:
#	187
#	17950
#	33172
#	46417
#	60890
#	77610
#	93850
#	106847
#	132595
#	146582
#
# Disc length: 2158 seconds
#
# Revision: 6
# Processed by: cddbd v1.5.1PL0 Copyright (c) Steve Scherf et al.
# Submitted via: CDex 1.51
#
DISCID=77086c0a
DTITLE=KISS - Alive? Disc1
DYEAR=1977
DGENRE=Hard Rock
TTITLE0=Detroit Rock City
TTITLE1=King Of The Night Time World
TTITLE2=Ladies Room
TTITLE3=Makin' Love
TTITLE4=Love Gun
TTITLE5=Calling Dr.Love
TTITLE6=Christine Sixteen
TTITLE7=Shock Me
TTITLE8=Hard Luck Woman
TTITLE9=Tomorrow And Tonight
EXTD=YEAR: 1977
EXTT0=
EXTT1=
EXTT2=
EXTT3=
EXTT4=
EXTT5=
EXTT6=
EXTT7=
EXTT8=
EXTT9=
PLAYORDER=
